<?xml version="1.0" encoding="utf-8"?>
<!-- Generator: Adobe Illustrator 22.1.0, SVG Export Plug-In . SVG Version: 6.00 Build 0)  -->
<svg version="1.1" xmlns="http://www.w3.org/2000/svg" xmlns:xlink="http://www.w3.org/1999/xlink" x="0px" y="0px"
	 viewBox="0 0 100 100" style="enable-background:new 0 0 100 100;" xml:space="preserve">
<style type="text/css">
	.st0{display:none;}
	.st1{display:inline;}
	.st2{fill:#525252;}
</style>
<g id="Layer_2">
</g>
<g id="Layer_1" class="st0">
	<g id="YejK2l.tif" class="st1">
		<image style="overflow:visible;" width="100" height="100" id="Layer_0" xlink:href="4564851690513991.png" >
		</image>
	</g>
</g>
<g id="Layer_3">
	<path class="st2" d="M38.2,64.8c0.6-1.6,0.8-3.4,0.9-4.7c-5.8-6.1-9.7-16.5-9.7-25.5c0-13.8,9.2-22,20.6-22s20.6,8.2,20.6,22
		c0,9-3.9,19.3-9.7,25.5c0.1,1.3,0.3,3.2,0.9,4.7c10.9,2.4,20,8.2,25.6,16.7C94.6,73,99,61.9,99,49.8c0-27.1-21.9-49-49-49
		c-27.1,0-49,21.9-49,49C1,61.9,5.4,73,12.6,81.5C18.2,73,27.3,67.2,38.2,64.8z"/>
</g>
</svg>
